#tb 0: 1/25
#media_type 0: video
#codec_id 0: rawvideo
#dimensions 0: 352x288
#sar 0: 0/1
0,          0,          0,        1,   152064, 0xfe5eb6ab
0,          1,          1,        1,   152064, 0x616ba01f
0,          2,          2,        1,   152064, 0xdd573016
0,          3,          3,        1,   152064, 0x199cbcce
0,          4,          4,        1,   152064, 0x5b5eedf8
0,          5,          5,        1,   152064, 0x381cdd1b
0,          6,          6,        1,   152064, 0x17f898d7
0,          7,          7,        1,   152064, 0x6607a0ef
0,          8,          8,        1,   152064, 0xa9d1c9ec
0,          9,          9,        1,   152064, 0x7f64652a
0,         10,         10,        1,   152064, 0x286e6d97
0,         11,         11,        1,   152064, 0x13ce20d7
0,         12,         12,        1,   152064, 0x2775c5c0
0,         13,         13,        1,   152064, 0x2deac83d
0,         14,         14,        1,   152064, 0xdef5cbd0
0,         15,         15,        1,   152064, 0x37ce4fcd
0,         16,         16,        1,   152064, 0x774ba2d7
0,         17,         17,        1,   152064, 0x2ddd6bc3
0,         18,         18,        1,   152064, 0x37697053
0,         19,         19,        1,   152064, 0xee4ef055
0,         20,         20,        1,   152064, 0x31d10388
0,         21,         21,        1,   152064, 0xaeeb2c6c
0,         22,         22,        1,   152064, 0x9cbf3351
0,         23,         23,        1,   152064, 0xe6b3805b
0,         24,         24,        1,   152064, 0xac05293f
0,         25,         25,        1,   152064, 0xb46cb268
0,         26,         26,        1,   152064, 0xc503cdef
0,         27,         27,        1,   152064, 0x9aae0202
0,         28,         28,        1,   152064, 0x4925cd39
0,         29,         29,        1,   152064, 0xd2367f22
0,         30,         30,        1,   152064, 0x40f18d50
0,         31,         31,        1,   152064, 0x870fde6a
0,         32,         32,        1,   152064, 0xb5042cba
0,         33,         33,        1,   152064, 0xa70beb05
0,         34,         34,        1,   152064, 0x093f639c
0,         35,         35,        1,   152064, 0x8dfd9084
0,         36,         36,        1,   152064, 0x2f7144f9
0,         37,         37,        1,   152064, 0xc34b37df
0,         38,         38,        1,   152064, 0xa5828f83
0,         39,         39,        1,   152064, 0x17b15ead
0,         40,         40,        1,   152064, 0xdfb0911d
0,         41,         41,        1,   152064, 0xfb3fd663
0,         42,         42,        1,   152064, 0x5e41d8da
0,         43,         43,        1,   152064, 0x563c2dbc
0,         44,         44,        1,   152064, 0xeaa81b09
0,         45,         45,        1,   152064, 0x728ec165
0,         46,         46,        1,   152064, 0x9579a323
0,         47,         47,        1,   152064, 0xcfe00a7a
0,         48,         48,        1,   152064, 0xe4ffe9d8
0,         49,         49,        1,   152064, 0x70620ed4
